<svg width="346" height="192" viewBox="0 0 346 192" fill="none" xmlns="http://www.w3.org/2000/svg">
<path d="M17.01 157H16.17C14.3033 157 12.74 156.86 11.48 156.58C10.2667 156.3 9.19333 155.74 8.26 154.9C7.37333 154.013 6.67333 153.033 6.16 151.96C5.69333 150.887 5.32 149.277 5.04 147.13C4.62 143.91 4.41 139.593 4.41 134.18C4.41 128.72 4.43333 124.87 4.48 122.63C4.57333 120.39 4.76 118.22 5.04 116.12C5.32 113.973 5.69333 112.387 6.16 111.36C6.67333 110.287 7.37333 109.33 8.26 108.49C9.19333 107.603 10.2667 107.043 11.48 106.81C12.74 106.53 14.3033 106.39 16.17 106.39H17.01V157ZM19.81 106.39H28.7C32.1067 106.39 34.6733 106.973 36.4 108.14C38.1733 109.307 39.06 111.337 39.06 114.23V120.53C39.06 121.51 38.7333 122 38.08 122H29.26C28.6067 122 28.21 121.907 28.07 121.72C27.93 121.533 27.86 121.137 27.86 120.53V115.07C27.86 114.323 27.7433 113.81 27.51 113.53C27.3233 113.203 26.81 113.04 25.97 113.04H19.81V106.39ZM29.26 141.39H38.08C38.7333 141.39 39.06 141.88 39.06 142.86V149.16C39.06 152.053 38.1733 154.083 36.4 155.25C34.6733 156.417 32.1067 157 28.7 157H19.81V150.35H25.97C26.81 150.35 27.3233 150.21 27.51 149.93C27.7433 149.603 27.86 149.067 27.86 148.32V142.86C27.86 142.253 27.93 141.857 28.07 141.67C28.21 141.483 28.6067 141.39 29.26 141.39ZM56.9363 106.39V126.34C56.9363 127.087 57.0529 127.623 57.2863 127.95C57.5196 128.23 58.0563 128.37 58.8963 128.37H61.4163V135.02H50.4963C48.7229 135.02 47.4863 134.623 46.7863 133.83C46.0863 132.99 45.7363 131.707 45.7363 129.98V109.68C45.7363 107.487 47.0196 106.39 49.5863 106.39H56.9363ZM68.3463 157H59.5963C58.0096 157 56.9596 156.743 56.4463 156.23C55.9796 155.717 55.7463 154.643 55.7463 153.01V141.81C55.7463 140.177 55.9796 139.103 56.4463 138.59C56.9596 138.077 58.0096 137.82 59.5963 137.82H68.3463V157ZM67.7863 106.39H75.1363C76.5363 106.39 77.5163 106.67 78.0763 107.23C78.6829 107.79 78.9863 108.84 78.9863 110.38V130.12C78.9863 133.387 77.6329 135.02 74.9263 135.02H64.2163V128.37H65.8963C66.7363 128.37 67.2496 128.207 67.4363 127.88C67.6696 127.553 67.7863 127.04 67.7863 126.34V106.39ZM190.125 157H182.775C181.188 157 180.138 156.743 179.625 156.23C179.158 155.717 178.925 154.643 178.925 153.01V110.38C178.925 108.747 179.158 107.673 179.625 107.16C180.138 106.647 181.188 106.39 182.775 106.39H190.125V157ZM211.755 147.2V153.15C211.755 154.737 211.498 155.787 210.985 156.3C210.472 156.767 209.398 157 207.765 157H192.925V147.2H211.755ZM207.555 126.55V130.75C207.555 132.43 207.392 133.503 207.065 133.97C206.738 134.39 205.805 134.6 204.265 134.6H192.925V126.55H207.555ZM211.055 106.39V112.34C211.055 113.927 210.798 114.977 210.285 115.49C209.772 115.957 208.698 116.19 207.065 116.19H192.925V106.39H211.055ZM230.662 157H223.312C221.726 157 220.676 156.743 220.162 156.23C219.696 155.717 219.462 154.643 219.462 153.01V109.19C219.462 108.35 219.696 107.673 220.162 107.16C220.629 106.647 221.236 106.39 221.982 106.39H230.662V157ZM233.462 106.39H242.352C245.059 106.39 247.182 106.6 248.722 107.02C250.309 107.44 251.499 108.28 252.292 109.54C253.086 110.753 253.576 112.13 253.762 113.67C253.996 115.163 254.112 117.287 254.112 120.04C254.112 122.793 253.996 124.893 253.762 126.34C253.576 127.787 253.086 129.14 252.292 130.4C251.546 131.66 250.356 132.547 248.722 133.06C247.136 133.573 245.012 133.83 242.352 133.83H233.462V127.18H238.642C239.856 127.18 240.626 127.017 240.952 126.69C241.326 126.363 241.512 125.85 241.512 125.15V115.14C241.512 114.393 241.326 113.857 240.952 113.53C240.626 113.203 239.856 113.04 238.642 113.04H233.462V106.39ZM240.182 136H248.862C250.262 136 251.266 136.397 251.872 137.19C252.479 137.937 252.782 139.173 252.782 140.9V157H242.702C241.956 157 241.349 156.743 240.882 156.23C240.416 155.717 240.182 155.04 240.182 154.2V136Z" fill="#0B2443"/>
<path d="M132.963 62.8H119.013C117.413 62.8 116.613 63.2 116.613 64V157H100.863C97.4629 157 95.2129 156.5 94.1129 155.5C93.1129 154.4 92.6129 152.15 92.6129 148.75V57.1C92.6129 53.6 93.1129 51.3 94.1129 50.2C95.2129 49.1 97.4629 48.55 100.863 48.55H132.963V62.8ZM141.363 109.9H155.613C159.713 109.9 162.363 110.85 163.563 112.75C164.763 114.55 165.363 117.45 165.363 121.45V143.65C165.363 150.25 163.613 154.3 160.113 155.8C158.413 156.6 156.263 157 153.663 157H122.613V142.9H135.213C139.313 142.9 141.363 141.45 141.363 138.55V109.9ZM139.413 48.55H153.663C157.663 48.55 160.213 49.45 161.313 51.25C162.513 53.05 163.113 56 163.113 60.1V88.9C163.113 94.7 162.063 98.9 159.963 101.5C157.963 104.1 153.713 105.4 147.213 105.4H122.613V91.15H133.713C136.213 91.15 137.763 90.55 138.363 89.35C139.063 88.15 139.413 86.3 139.413 83.8V48.55Z" fill="#FF0000"/>
<path d="M187.1 46.4291V88.3591C187.1 89.1057 187.193 89.6424 187.38 89.9691C187.613 90.2491 188.15 90.3891 188.99 90.3891H196.55V97.0391H186.26C182.853 97.0391 180.263 96.4557 178.49 95.2891C176.763 94.1224 175.9 92.0924 175.9 89.1991V50.4191C175.9 48.7857 176.133 47.7124 176.6 47.1991C177.113 46.6857 178.163 46.4291 179.75 46.4291H187.1ZM198.65 46.4291H206C207.587 46.4291 208.613 46.6857 209.08 47.1991C209.593 47.7124 209.85 48.7857 209.85 50.4191V88.3591C209.85 89.1057 209.943 89.6424 210.13 89.9691C210.363 90.2491 210.9 90.3891 211.74 90.3891H213V97.0391H209.01C205.603 97.0391 203.013 96.4557 201.24 95.2891C199.513 94.1224 198.65 92.0924 198.65 89.1991V46.4291ZM232.512 46.4291V88.3591C232.512 89.0591 232.675 89.5724 233.002 89.8991C233.375 90.2257 234.169 90.3891 235.382 90.3891H240.562V97.0391H231.672C229.805 97.0391 228.242 96.8991 226.982 96.6191C225.769 96.3391 224.695 95.7791 223.762 94.9391C222.875 94.0524 222.175 93.0724 221.662 91.9991C221.195 90.9257 220.822 89.3157 220.542 87.1691C220.122 83.9491 219.912 79.6324 219.912 74.2191C219.912 68.7591 219.935 64.9091 219.982 62.6691C220.075 60.4291 220.262 58.2591 220.542 56.1591C220.822 54.0124 221.195 52.4257 221.662 51.3991C222.175 50.3257 222.875 49.3691 223.762 48.5291C224.695 47.6424 225.769 47.0824 226.982 46.8491C228.242 46.5691 229.805 46.4291 231.672 46.4291H232.512ZM235.312 69.4591H247.632C252.205 69.4591 254.492 71.5591 254.492 75.7591V90.3191C254.492 93.2124 254.259 95.0557 253.792 95.8491C253.372 96.6424 252.112 97.0391 250.012 97.0391H243.362V78.1391C243.362 77.3924 243.245 76.8791 243.012 76.5991C242.825 76.2724 242.312 76.1091 241.472 76.1091H235.312V69.4591ZM235.312 46.4291H244.202C247.609 46.4291 250.175 47.0124 251.902 48.1791C253.675 49.3457 254.562 51.3757 254.562 54.2691V60.5691C254.562 61.5491 254.235 62.0391 253.582 62.0391H244.762C244.109 62.0391 243.712 61.9457 243.572 61.7591C243.432 61.5724 243.362 61.1757 243.362 60.5691V55.1091C243.362 54.3624 243.245 53.8491 243.012 53.5691C242.825 53.2424 242.312 53.0791 241.472 53.0791H235.312V46.4291ZM318.702 46.4991V66.5891C318.702 67.3357 318.865 67.8724 319.192 68.1991C319.565 68.5257 320.358 68.6891 321.572 68.6891H326.752V75.3391H317.862C315.202 75.3391 313.055 75.0591 311.422 74.4991C309.835 73.9391 308.645 72.9591 307.852 71.5591C307.105 70.1124 306.615 68.5724 306.382 66.9391C306.195 65.3057 306.102 63.1124 306.102 60.3591C306.102 57.5591 306.195 55.4357 306.382 53.9891C306.615 52.5424 307.105 51.1891 307.852 49.9291C308.645 48.6691 309.835 47.7824 311.422 47.2691C313.055 46.7557 315.202 46.4991 317.862 46.4991H318.702ZM329.552 68.6891H330.392C332.398 68.6891 333.938 68.7357 335.012 68.8291C336.132 68.8757 337.205 69.0857 338.232 69.4591C339.258 69.7857 339.958 70.1824 340.332 70.6491C340.752 71.1157 341.125 71.9324 341.452 73.0991C341.825 74.2191 342.035 75.4324 342.082 76.7391C342.128 78.0457 342.152 79.9124 342.152 82.3391C342.152 84.7657 342.128 86.7024 342.082 88.1491C342.035 89.5491 341.825 90.9024 341.452 92.2091C341.125 93.4691 340.752 94.3557 340.332 94.8691C339.958 95.3824 339.258 95.8491 338.232 96.2691C337.205 96.6424 336.132 96.8757 335.012 96.9691C333.938 97.0157 332.398 97.0391 330.392 97.0391H329.552V68.6891ZM307.082 81.4291H315.902C316.555 81.4291 316.952 81.5224 317.092 81.7091C317.232 81.8957 317.302 82.2924 317.302 82.8991V88.3591C317.302 89.1057 317.395 89.6424 317.582 89.9691C317.815 90.2491 318.352 90.3891 319.192 90.3891H326.752V97.0391H316.462C313.055 97.0391 310.465 96.4557 308.692 95.2891C306.965 94.1224 306.102 92.0924 306.102 89.1991V82.8991C306.102 81.9191 306.428 81.4291 307.082 81.4291ZM321.502 46.4291H330.392C333.798 46.4291 336.365 47.0124 338.092 48.1791C339.865 49.3457 340.752 51.3757 340.752 54.2691V60.5691C340.752 61.5491 340.425 62.0391 339.772 62.0391H330.952C330.298 62.0391 329.902 61.9457 329.762 61.7591C329.622 61.5724 329.552 61.1757 329.552 60.5691V55.1091C329.552 54.3624 329.435 53.8491 329.202 53.5691C329.015 53.2424 328.502 53.0791 327.662 53.0791H321.502V46.4291Z" fill="#0B2443"/>
<path d="M275.852 46.4291V88.3591C275.852 89.0591 276.015 89.5724 276.342 89.8991C276.715 90.2257 277.508 90.3891 278.722 90.3891H283.902V97.0391H275.012C273.145 97.0391 271.582 96.8991 270.322 96.6191C269.108 96.3391 268.035 95.7791 267.102 94.9391C266.215 94.0524 265.515 93.0724 265.002 91.9991C264.535 90.9257 264.162 89.3157 263.882 87.1691C263.462 83.9491 263.252 79.6324 263.252 74.2191C263.252 68.7591 263.275 64.9091 263.322 62.6691C263.415 60.4291 263.602 58.2591 263.882 56.1591C264.162 54.0124 264.535 52.4257 265.002 51.3991C265.515 50.3257 266.215 49.3691 267.102 48.5291C268.035 47.6424 269.108 47.0824 270.322 46.8491C271.582 46.5691 273.145 46.4291 275.012 46.4291H275.852ZM278.652 69.4591H290.972C295.545 69.4591 297.832 71.5591 297.832 75.7591V90.3191C297.832 93.2124 297.598 95.0557 297.132 95.8491C296.712 96.6424 295.452 97.0391 293.352 97.0391H286.702V78.1391C286.702 77.3924 286.585 76.8791 286.352 76.5991C286.165 76.2724 285.652 76.1091 284.812 76.1091H278.652V69.4591ZM278.652 46.4291H287.542C290.948 46.4291 293.515 47.0124 295.242 48.1791C297.015 49.3457 297.902 51.3757 297.902 54.2691V60.5691C297.902 61.5491 297.575 62.0391 296.922 62.0391H288.102C287.448 62.0391 287.052 61.9457 286.912 61.7591C286.772 61.5724 286.702 61.1757 286.702 60.5691V55.1091C286.702 54.3624 286.585 53.8491 286.352 53.5691C286.165 53.2424 285.652 53.0791 284.812 53.0791H278.652V46.4291Z" fill="#FF0000"/>
</svg>
