<svg width="347" height="183" viewBox="0 0 347 183" fill="none" xmlns="http://www.w3.org/2000/svg">
<g filter="url(#filter0_d_815_868)">
<path d="M17.01 149H16.17C14.3033 149 12.74 148.86 11.48 148.58C10.2667 148.3 9.19333 147.74 8.26 146.9C7.37333 146.013 6.67333 145.033 6.16 143.96C5.69333 142.887 5.32 141.277 5.04 139.13C4.62 135.91 4.41 131.593 4.41 126.18C4.41 120.72 4.43333 116.87 4.48 114.63C4.57333 112.39 4.76 110.22 5.04 108.12C5.32 105.973 5.69333 104.387 6.16 103.36C6.67333 102.287 7.37333 101.33 8.26 100.49C9.19333 99.6033 10.2667 99.0433 11.48 98.81C12.74 98.53 14.3033 98.39 16.17 98.39H17.01V149ZM19.81 98.39H28.7C32.1067 98.39 34.6733 98.9733 36.4 100.14C38.1733 101.307 39.06 103.337 39.06 106.23V112.53C39.06 113.51 38.7333 114 38.08 114H29.26C28.6067 114 28.21 113.907 28.07 113.72C27.93 113.533 27.86 113.137 27.86 112.53V107.07C27.86 106.323 27.7433 105.81 27.51 105.53C27.3233 105.203 26.81 105.04 25.97 105.04H19.81V98.39ZM29.26 133.39H38.08C38.7333 133.39 39.06 133.88 39.06 134.86V141.16C39.06 144.053 38.1733 146.083 36.4 147.25C34.6733 148.417 32.1067 149 28.7 149H19.81V142.35H25.97C26.81 142.35 27.3233 142.21 27.51 141.93C27.7433 141.603 27.86 141.067 27.86 140.32V134.86C27.86 134.253 27.93 133.857 28.07 133.67C28.21 133.483 28.6067 133.39 29.26 133.39ZM56.9363 98.39V118.34C56.9363 119.087 57.0529 119.623 57.2863 119.95C57.5196 120.23 58.0563 120.37 58.8963 120.37H61.4163V127.02H50.4963C48.7229 127.02 47.4863 126.623 46.7863 125.83C46.0863 124.99 45.7363 123.707 45.7363 121.98V101.68C45.7363 99.4867 47.0196 98.39 49.5863 98.39H56.9363ZM68.3463 149H59.5963C58.0096 149 56.9596 148.743 56.4463 148.23C55.9796 147.717 55.7463 146.643 55.7463 145.01V133.81C55.7463 132.177 55.9796 131.103 56.4463 130.59C56.9596 130.077 58.0096 129.82 59.5963 129.82H68.3463V149ZM67.7863 98.39H75.1363C76.5363 98.39 77.5163 98.67 78.0763 99.23C78.6829 99.79 78.9863 100.84 78.9863 102.38V122.12C78.9863 125.387 77.6329 127.02 74.9263 127.02H64.2163V120.37H65.8963C66.7363 120.37 67.2496 120.207 67.4363 119.88C67.6696 119.553 67.7863 119.04 67.7863 118.34V98.39ZM190.125 149H182.775C181.188 149 180.138 148.743 179.625 148.23C179.158 147.717 178.925 146.643 178.925 145.01V102.38C178.925 100.747 179.158 99.6733 179.625 99.16C180.138 98.6467 181.188 98.39 182.775 98.39H190.125V149ZM211.755 139.2V145.15C211.755 146.737 211.498 147.787 210.985 148.3C210.472 148.767 209.398 149 207.765 149H192.925V139.2H211.755ZM207.555 118.55V122.75C207.555 124.43 207.392 125.503 207.065 125.97C206.738 126.39 205.805 126.6 204.265 126.6H192.925V118.55H207.555ZM211.055 98.39V104.34C211.055 105.927 210.798 106.977 210.285 107.49C209.772 107.957 208.698 108.19 207.065 108.19H192.925V98.39H211.055ZM230.662 149H223.312C221.726 149 220.676 148.743 220.162 148.23C219.696 147.717 219.462 146.643 219.462 145.01V101.19C219.462 100.35 219.696 99.6733 220.162 99.16C220.629 98.6467 221.236 98.39 221.982 98.39H230.662V149ZM233.462 98.39H242.352C245.059 98.39 247.182 98.6 248.722 99.02C250.309 99.44 251.499 100.28 252.292 101.54C253.086 102.753 253.576 104.13 253.762 105.67C253.996 107.163 254.112 109.287 254.112 112.04C254.112 114.793 253.996 116.893 253.762 118.34C253.576 119.787 253.086 121.14 252.292 122.4C251.546 123.66 250.356 124.547 248.722 125.06C247.136 125.573 245.012 125.83 242.352 125.83H233.462V119.18H238.642C239.856 119.18 240.626 119.017 240.952 118.69C241.326 118.363 241.512 117.85 241.512 117.15V107.14C241.512 106.393 241.326 105.857 240.952 105.53C240.626 105.203 239.856 105.04 238.642 105.04H233.462V98.39ZM240.182 128H248.862C250.262 128 251.266 128.397 251.872 129.19C252.479 129.937 252.782 131.173 252.782 132.9V149H242.702C241.956 149 241.349 148.743 240.882 148.23C240.416 147.717 240.182 147.04 240.182 146.2V128Z" fill="white"/>
<path d="M132.963 54.8H119.013C117.413 54.8 116.613 55.2 116.613 56V149H100.863C97.4629 149 95.2129 148.5 94.1129 147.5C93.1129 146.4 92.6129 144.15 92.6129 140.75V49.1C92.6129 45.6 93.1129 43.3 94.1129 42.2C95.2129 41.1 97.4629 40.55 100.863 40.55H132.963V54.8ZM141.363 101.9H155.613C159.713 101.9 162.363 102.85 163.563 104.75C164.763 106.55 165.363 109.45 165.363 113.45V135.65C165.363 142.25 163.613 146.3 160.113 147.8C158.413 148.6 156.263 149 153.663 149H122.613V134.9H135.213C139.313 134.9 141.363 133.45 141.363 130.55V101.9ZM139.413 40.55H153.663C157.663 40.55 160.213 41.45 161.313 43.25C162.513 45.05 163.113 48 163.113 52.1V80.9C163.113 86.7 162.063 90.9 159.963 93.5C157.963 96.1 153.713 97.4 147.213 97.4H122.613V83.15H133.713C136.213 83.15 137.763 82.55 138.363 81.35C139.063 80.15 139.413 78.3 139.413 75.8V40.55Z" fill="#FF0000"/>
<path d="M187.1 41.39V83.32C187.1 84.0667 187.193 84.6033 187.38 84.93C187.613 85.21 188.15 85.35 188.99 85.35H196.55V92H186.26C182.853 92 180.263 91.4167 178.49 90.25C176.763 89.0833 175.9 87.0533 175.9 84.16V45.38C175.9 43.7467 176.133 42.6733 176.6 42.16C177.113 41.6467 178.163 41.39 179.75 41.39H187.1ZM198.65 41.39H206C207.587 41.39 208.613 41.6467 209.08 42.16C209.593 42.6733 209.85 43.7467 209.85 45.38V83.32C209.85 84.0667 209.943 84.6033 210.13 84.93C210.363 85.21 210.9 85.35 211.74 85.35H213V92H209.01C205.603 92 203.013 91.4167 201.24 90.25C199.513 89.0833 198.65 87.0533 198.65 84.16V41.39ZM232.512 41.39V83.32C232.512 84.02 232.675 84.5333 233.002 84.86C233.375 85.1867 234.169 85.35 235.382 85.35H240.562V92H231.672C229.805 92 228.242 91.86 226.982 91.58C225.769 91.3 224.695 90.74 223.762 89.9C222.875 89.0133 222.175 88.0333 221.662 86.96C221.195 85.8867 220.822 84.2767 220.542 82.13C220.122 78.91 219.912 74.5933 219.912 69.18C219.912 63.72 219.935 59.87 219.982 57.63C220.075 55.39 220.262 53.22 220.542 51.12C220.822 48.9733 221.195 47.3867 221.662 46.36C222.175 45.2867 222.875 44.33 223.762 43.49C224.695 42.6033 225.769 42.0433 226.982 41.81C228.242 41.53 229.805 41.39 231.672 41.39H232.512ZM235.312 64.42H247.632C252.205 64.42 254.492 66.52 254.492 70.72V85.28C254.492 88.1733 254.259 90.0167 253.792 90.81C253.372 91.6033 252.112 92 250.012 92H243.362V73.1C243.362 72.3533 243.245 71.84 243.012 71.56C242.825 71.2333 242.312 71.07 241.472 71.07H235.312V64.42ZM235.312 41.39H244.202C247.609 41.39 250.175 41.9733 251.902 43.14C253.675 44.3067 254.562 46.3367 254.562 49.23V55.53C254.562 56.51 254.235 57 253.582 57H244.762C244.109 57 243.712 56.9067 243.572 56.72C243.432 56.5333 243.362 56.1367 243.362 55.53V50.07C243.362 49.3233 243.245 48.81 243.012 48.53C242.825 48.2033 242.312 48.04 241.472 48.04H235.312V41.39ZM318.702 41.46V61.55C318.702 62.2967 318.865 62.8333 319.192 63.16C319.565 63.4867 320.358 63.65 321.572 63.65H326.752V70.3H317.862C315.202 70.3 313.055 70.02 311.422 69.46C309.835 68.9 308.645 67.92 307.852 66.52C307.105 65.0733 306.615 63.5333 306.382 61.9C306.195 60.2667 306.102 58.0733 306.102 55.32C306.102 52.52 306.195 50.3967 306.382 48.95C306.615 47.5033 307.105 46.15 307.852 44.89C308.645 43.63 309.835 42.7433 311.422 42.23C313.055 41.7167 315.202 41.46 317.862 41.46H318.702ZM329.552 63.65H330.392C332.398 63.65 333.938 63.6967 335.012 63.79C336.132 63.8367 337.205 64.0467 338.232 64.42C339.258 64.7467 339.958 65.1433 340.332 65.61C340.752 66.0767 341.125 66.8933 341.452 68.06C341.825 69.18 342.035 70.3933 342.082 71.7C342.128 73.0067 342.152 74.8733 342.152 77.3C342.152 79.7267 342.128 81.6633 342.082 83.11C342.035 84.51 341.825 85.8633 341.452 87.17C341.125 88.43 340.752 89.3167 340.332 89.83C339.958 90.3433 339.258 90.81 338.232 91.23C337.205 91.6033 336.132 91.8367 335.012 91.93C333.938 91.9767 332.398 92 330.392 92H329.552V63.65ZM307.082 76.39H315.902C316.555 76.39 316.952 76.4833 317.092 76.67C317.232 76.8567 317.302 77.2533 317.302 77.86V83.32C317.302 84.0667 317.395 84.6033 317.582 84.93C317.815 85.21 318.352 85.35 319.192 85.35H326.752V92H316.462C313.055 92 310.465 91.4167 308.692 90.25C306.965 89.0833 306.102 87.0533 306.102 84.16V77.86C306.102 76.88 306.428 76.39 307.082 76.39ZM321.502 41.39H330.392C333.798 41.39 336.365 41.9733 338.092 43.14C339.865 44.3067 340.752 46.3367 340.752 49.23V55.53C340.752 56.51 340.425 57 339.772 57H330.952C330.298 57 329.902 56.9067 329.762 56.72C329.622 56.5333 329.552 56.1367 329.552 55.53V50.07C329.552 49.3233 329.435 48.81 329.202 48.53C329.015 48.2033 328.502 48.04 327.662 48.04H321.502V41.39Z" fill="white"/>
<path d="M275.852 41.39V83.32C275.852 84.02 276.015 84.5333 276.342 84.86C276.715 85.1867 277.508 85.35 278.722 85.35H283.902V92H275.012C273.145 92 271.582 91.86 270.322 91.58C269.108 91.3 268.035 90.74 267.102 89.9C266.215 89.0133 265.515 88.0333 265.002 86.96C264.535 85.8867 264.162 84.2767 263.882 82.13C263.462 78.91 263.252 74.5933 263.252 69.18C263.252 63.72 263.275 59.87 263.322 57.63C263.415 55.39 263.602 53.22 263.882 51.12C264.162 48.9733 264.535 47.3867 265.002 46.36C265.515 45.2867 266.215 44.33 267.102 43.49C268.035 42.6033 269.108 42.0433 270.322 41.81C271.582 41.53 273.145 41.39 275.012 41.39H275.852ZM278.652 64.42H290.972C295.545 64.42 297.832 66.52 297.832 70.72V85.28C297.832 88.1733 297.598 90.0167 297.132 90.81C296.712 91.6033 295.452 92 293.352 92H286.702V73.1C286.702 72.3533 286.585 71.84 286.352 71.56C286.165 71.2333 285.652 71.07 284.812 71.07H278.652V64.42ZM278.652 41.39H287.542C290.948 41.39 293.515 41.9733 295.242 43.14C297.015 44.3067 297.902 46.3367 297.902 49.23V55.53C297.902 56.51 297.575 57 296.922 57H288.102C287.448 57 287.052 56.9067 286.912 56.72C286.772 56.5333 286.702 56.1367 286.702 55.53V50.07C286.702 49.3233 286.585 48.81 286.352 48.53C286.165 48.2033 285.652 48.04 284.812 48.04H278.652V41.39Z" fill="#FF0000"/>
</g>
<defs>
<filter id="filter0_d_815_868" x="0.410156" y="40.5508" width="345.742" height="116.449" filterUnits="userSpaceOnUse" color-interpolation-filters="sRGB">
<feFlood flood-opacity="0" result="BackgroundImageFix"/>
<feColorMatrix in="SourceAlpha" type="matrix" values="0 0 0 0 0 0 0 0 0 0 0 0 0 0 0 0 0 0 127 0" result="hardAlpha"/>
<feOffset dy="4"/>
<feGaussianBlur stdDeviation="2"/>
<feComposite in2="hardAlpha" operator="out"/>
<feColorMatrix type="matrix" values="0 0 0 0 0 0 0 0 0 0 0 0 0 0 0 0 0 0 0.25 0"/>
<feBlend mode="normal" in2="BackgroundImageFix" result="effect1_dropShadow_815_868"/>
<feBlend mode="normal" in="SourceGraphic" in2="effect1_dropShadow_815_868" result="shape"/>
</filter>
</defs>
</svg>
